<?xml version="1.0" encoding="utf-8"?>
<!-- Generator: Adobe Illustrator 25.1.0, SVG Export Plug-In . SVG Version: 6.00 Build 0)  -->
<svg version="1.1" id="Calque_1" xmlns="http://www.w3.org/2000/svg" x="0px" y="0px"
     viewBox="0 0 864 242" style="enable-background:new 0 0 864 242;" xml:space="preserve">
<style type="text/css">
	.st0{fill:#00B99F;}
	.st1{fill:url(#SVGID_1_);}
	.st2{fill:url(#SVGID_2_);}
	.st3{fill:url(#SVGID_3_);}
	.st4{fill:#545454;}
	.st5{fill:#BDACFF;}
	.st6{fill:url(#SVGID_4_);}
	.st7{fill:url(#SVGID_5_);}
	.st8{fill:none;stroke:url(#SVGID_6_);stroke-miterlimit:10;}
	.st9{fill:url(#SVGID_7_);}
</style>
<g>
	<circle class="st0" cx="818.2" cy="89.3" r="10.3"/>
	<linearGradient id="SVGID_1_" gradientUnits="userSpaceOnUse" x1="763.0499" y1="49.1105" x2="781.4379" y2="49.1105">
		<stop  offset="0" style="stop-color:#00E87D"/>
		<stop  offset="0.9402" style="stop-color:#02E77E"/>
		<stop  offset="1" style="stop-color:#03E77E"/>
	</linearGradient>
	<circle class="st1" cx="772.2" cy="49.1" r="9.2"/>
	<linearGradient id="SVGID_2_" gradientUnits="userSpaceOnUse" x1="807.8705" y1="39.9165" x2="837.751" y2="39.9165">
		<stop  offset="0" style="stop-color:#00E87D"/>
		<stop  offset="0.9402" style="stop-color:#02E77E"/>
		<stop  offset="1" style="stop-color:#03E77E"/>
	</linearGradient>
	<circle class="st2" cx="822.8" cy="39.9" r="14.9"/>
	<g>
		<linearGradient id="SVGID_3_" gradientUnits="userSpaceOnUse" x1="167.8337" y1="131.0169" x2="124.2713" y2="151.2056">
			<stop  offset="5.586592e-03" style="stop-color:#0CBA52"/>
			<stop  offset="0.1782" style="stop-color:#0FBA56"/>
			<stop  offset="0.3622" style="stop-color:#16BB63"/>
			<stop  offset="0.5514" style="stop-color:#23BC78"/>
			<stop  offset="0.7443" style="stop-color:#35BE96"/>
			<stop  offset="0.9383" style="stop-color:#4CC0BC"/>
			<stop  offset="1" style="stop-color:#54C1CA"/>
		</linearGradient>
		<path class="st3" d="M125.2,161c-3.8-15.8,3.4-33.3,18.5-38.9c16.7-6.2,31.7,8.1,35.4,23.9"/>
		<g>
			<path class="st4" d="M192.4,68.7c-4.5-2.5-9.2-4.7-14-6.6c-4.7-1.9-9.6-3.5-14.5-4.7c-4.9-1.2-9.9-2-15-2.2c-1.3,0-2.5-0.1-3.8,0
				l-3.7,0.2l-3.7,0.5c-1.2,0.2-2.4,0.5-3.6,0.7c-9.7,2.2-18.5,7.6-25.4,14.9c-7,7.3-12.4,16.2-16.9,25.4c3-9.9,7.8-19.4,14.6-27.5
				c3.4-4,7.4-7.7,12-10.5c4.5-2.8,9.6-4.9,14.8-6.2c5.2-1.2,10.6-1.6,15.9-1.2c5.3,0.4,10.5,1.4,15.6,2.9c5,1.5,9.9,3.5,14.5,5.9
				C183.9,62.8,188.3,65.5,192.4,68.7z"/>
		</g>
		<path class="st5" d="M91.8,97c0,0,20-72.8,96.9-30.7c3.1,1.7,5.8,4,8,6.7c2.2,2.7,5.1,6.7,8.1,11.9l-40,9.3
			C164.8,94.1,128.2,57.7,91.8,97z"/>
		<linearGradient id="SVGID_4_" gradientUnits="userSpaceOnUse" x1="126.8283" y1="34.7601" x2="132.3375" y2="230.8408">
			<stop  offset="0" style="stop-color:#00E85E"/>
			<stop  offset="0.4881" style="stop-color:#00B99F"/>
			<stop  offset="0.7346" style="stop-color:#5BCEBC"/>
			<stop  offset="1" style="stop-color:#BEE5DC"/>
		</linearGradient>
		<path class="st6" d="M164.8,94.1l40-9.3c0,0-34-64.6-109.7-36.5c0,0-61.6,23.8-50.8,95c0,0,6.2,46.9,54.2,65.3
			s84.1-12.4,84.1-12.4s32.3-23.9,33.5-64.9c0.1-3.7-0.9-7.4-2.9-10.5c-3.1-4.7-8.9-10.6-18.3-10.2L143,122.4c0,0,26.4-6.1,30.7,19
			c0.7,4.2-0.2,8.4-2.4,12c-4.7,7.7-15.9,20.7-37.7,23.2c0,0-32.2,4.3-48.1-27.8s11.1-56.9,11.1-56.9S126.7,61.2,164.8,94.1z"/>
		<linearGradient id="SVGID_5_" gradientUnits="userSpaceOnUse" x1="105.4219" y1="75.0972" x2="191.1175" y2="73.5901">
			<stop  offset="5.586592e-03" style="stop-color:#0CBA52"/>
			<stop  offset="0.1782" style="stop-color:#0FBA56"/>
			<stop  offset="0.3622" style="stop-color:#16BB63"/>
			<stop  offset="0.5514" style="stop-color:#23BC78"/>
			<stop  offset="0.7443" style="stop-color:#35BE96"/>
			<stop  offset="0.9383" style="stop-color:#4CC0BC"/>
			<stop  offset="1" style="stop-color:#54C1CA"/>
		</linearGradient>
		<path class="st7" d="M91.9,96.8c0,0,12.6-42.8,51.1-43.8c38.4-1,61.9,31.6,61.9,31.6l-40,9.3C164.9,93.9,128.9,57.5,91.9,96.8z"/>
		<linearGradient id="SVGID_6_" gradientUnits="userSpaceOnUse" x1="91.148" y1="74.9445" x2="205.0354" y2="74.9445">
			<stop  offset="0" style="stop-color:#0CBA52"/>
			<stop  offset="0.2966" style="stop-color:#2DBC72"/>
			<stop  offset="0.9479" style="stop-color:#82C1C3"/>
			<stop  offset="1" style="stop-color:#89C1CA"/>
		</linearGradient>
		<path class="st8" d="M91.6,97c0,0,12.6-42.8,51.1-43.8c35.7-0.9,57.4,25.2,61.9,31.6"/>
	</g>
	<linearGradient id="SVGID_7_" gradientUnits="userSpaceOnUse" x1="235.8543" y1="151.3125" x2="763.2833" y2="151.3125">
		<stop  offset="0" style="stop-color:#54C1CA"/>
		<stop  offset="0.429" style="stop-color:#2BD495"/>
		<stop  offset="0.8053" style="stop-color:#0CE26D"/>
		<stop  offset="1" style="stop-color:#00E85E"/>
	</linearGradient>
	<path class="st9" d="M235.9,212.8V89.9h80.9v21.4h-57v28.8h48.5v21.4h-48.5v29.9h57v21.4H235.9z M427.6,212.8v-71.6l-23.5,46.6
		h-16.2l-23.6-46.6v71.6h-24V89.9h23.6l32.1,66.5L428,89.9h23.6v122.9H427.6z M514.1,213.8c-18.6,0-32.8-4-44.9-16.2l15.5-15.5
		c7.8,7.8,18.3,10.4,29.5,10.4c14.3,0,21.9-5.5,21.9-15.4c0-4.1-1.2-7.6-3.8-10.2c-2.4-2.2-4.8-3.3-11-4.1l-14.7-2.2
		c-10.9-1.6-18.3-4.8-23.8-10.2c-5.9-5.7-8.8-13.8-8.8-24.2c0-21.9,16.2-37.3,42.8-37.3c16.9,0,29.2,4.1,39.7,14.3l-15.2,15
		c-7.6-7.4-17.1-8.5-25.2-8.5c-12.8,0-18.8,7.1-18.8,15.5c0,3.3,0.9,6.4,3.5,8.8c2.4,2.2,6,4,11.2,4.7l14.7,2.2
		c11.2,1.6,18.1,4.5,23.5,9.7c6.6,6,9.5,14.8,9.5,25.9C559.6,200.3,540,213.8,514.1,213.8z M575.1,212.6V91.5h79.7v21.1h-56.1V141
		h47.8v21.1h-47.8v29.4h56.1v21.1H575.1z M750.9,200.8c-8.2,8.2-18.4,12.8-32.3,12.8c-13.9,0-24.3-4.6-32.5-12.8
		c-12.1-12.1-12.2-25.7-12.2-48.8c0-23.1,0.2-36.7,12.2-48.8c8.2-8.2,18.5-12.8,32.5-12.8c13.9,0,24.1,4.6,32.3,12.8
		c12.1,12.1,12.4,25.7,12.4,48.8C763.3,175.2,762.9,188.8,750.9,200.8z M733.7,118c-3.4-3.9-8.7-6.5-15.1-6.5
		c-6.5,0-11.7,2.6-15.3,6.5c-4.4,5.1-5.8,10.9-5.8,34c0,23.1,1.4,28.7,5.8,33.8c3.6,3.9,8.8,6.6,15.3,6.6c6.5,0,11.7-2.7,15.1-6.6
		c4.4-5.1,6-10.7,6-33.8C739.6,128.9,738.1,123.1,733.7,118z"/>
</g>
</svg>
