<?xml version="1.0" encoding="UTF-8" standalone="no"?>
<svg xmlns:rdf="http://www.w3.org/1999/02/22-rdf-syntax-ns#" xmlns="http://www.w3.org/2000/svg" height="99.608" width="83.322" version="1.1" xmlns:cc="http://creativecommons.org/ns#" xmlns:dc="http://purl.org/dc/elements/1.1/">
 <path d="m83.322 28.46v46.636q0 2.6681-2.7237 3.4463-9.6718 2.8904-18.788 2.8904-4.0577 0-11.979-1.6398-7.9209-1.6398-12.646-1.6398-9.116 0-20.566 2.6681v18.788h-8.8936v-76.04q-3.5009-1.391-5.6132-4.503-2.1122-3.113-2.1122-6.893 0-5.0581 3.5574-8.6156 3.5575-3.5574 8.6156-3.5574 5.0582 0 8.6157 3.5574 3.5574 3.5574 3.5574 8.6157 0 3.7798-2.1122 6.8926t-5.6141 4.5024v3.7798q10.561-2.4457 19.066-2.4457 5.5029 0 11.006 0.83378 0.77819 0.11117 6.1977 1.2507t8.31 1.1395q4.2801 0 9.1715-1.0005 0.61144-0.11117 4.4468-1.1673t4.9471-1.0561q1.4452 0 2.5013 1.0561t1.0561 2.5013z"/>
</svg>
